<?xml version="1.0" encoding="UTF-8"?>
<svg xmlns="http://www.w3.org/2000/svg" xmlns:xlink="http://www.w3.org/1999/xlink" viewBox="0 0 128 128" width="128px" height="128px">
<g id="surface22466917">
<path style=" stroke:none;fill-rule:nonzero;fill:rgb(100%,100%,100%);fill-opacity:1;" d="M 102 98 C 102 102.398438 98.398438 106 94 106 C 89.601562 106 86 102.398438 86 98 C 86 93.601562 89.601562 90 94 90 C 98.398438 90 102 93.601562 102 98 Z M 102 98 "/>
<path style=" stroke:none;fill-rule:nonzero;fill:rgb(100%,100%,100%);fill-opacity:1;" d="M 66 98 C 66 102.398438 62.398438 106 58 106 C 53.601562 106 50 102.398438 50 98 C 50 93.601562 53.601562 90 58 90 C 62.398438 90 66 93.601562 66 98 Z M 66 98 "/>
<path style=" stroke:none;fill-rule:nonzero;fill:rgb(100%,100%,100%);fill-opacity:1;" d="M 94 88 C 89.199219 88 85.199219 91.398438 84.199219 96 L 67.800781 96 C 66.800781 91.398438 62.800781 88 58 88 C 52.398438 88 48 92.398438 48 98 C 48 103.601562 52.398438 108 58 108 C 62.800781 108 66.800781 104.601562 67.800781 100 L 84.199219 100 C 85.199219 104.601562 89.199219 108 94 108 C 99.601562 108 104 103.601562 104 98 C 104 92.398438 99.601562 88 94 88 Z M 58 104 C 54.601562 104 52 101.398438 52 98 C 52 94.601562 54.601562 92 58 92 C 61.398438 92 64 94.601562 64 98 C 64 101.398438 61.398438 104 58 104 Z M 94 104 C 90.601562 104 88 101.398438 88 98 C 88 94.601562 90.601562 92 94 92 C 97.398438 92 100 94.601562 100 98 C 100 101.398438 97.398438 104 94 104 Z M 94 104 "/>
<path style=" stroke:none;fill-rule:nonzero;fill:rgb(100%,100%,100%);fill-opacity:1;" d="M 60 66 L 96 66 L 96 70 L 60 70 Z M 60 66 "/>
<path style=" stroke:none;fill-rule:nonzero;fill:rgb(100%,100%,100%);fill-opacity:1;" d="M 110 38 L 43.601562 38 L 40.601562 24.601562 C 40 22 37.601562 20 34.800781 20 L 18 20 C 14.601562 20 12 22.601562 12 26 C 12 29.398438 14.601562 32 18 32 L 26 32 C 29.398438 32 32 29.398438 32 26 L 32 24 L 34.800781 24 C 35.800781 24 36.601562 24.601562 36.800781 25.601562 L 46.800781 70.199219 C 47.800781 74.800781 51.800781 78 56.601562 78 L 100 78 C 104.398438 78 108.398438 75 109.601562 70.800781 L 115.601562 49.601562 C 115.800781 48.800781 116 47.800781 116 46.800781 L 116 44 C 116 40.601562 113.398438 38 110 38 Z M 28 26 C 28 27.199219 27.199219 28 26 28 L 18 28 C 16.800781 28 16 27.199219 16 26 C 16 24.800781 16.800781 24 18 24 L 28 24 Z M 112 46.800781 C 112 47.398438 112 48 111.800781 48.398438 L 105.800781 69.601562 C 105 72.199219 102.601562 74 100 74 L 56.398438 74 C 53.601562 74 51.199219 72 50.601562 69.398438 L 44.601562 42 L 110 42 C 111.199219 42 112 42.800781 112 44 Z M 112 46.800781 "/>
<path style=" stroke:none;fill-rule:nonzero;fill:rgb(100%,100%,100%);fill-opacity:1;" d="M 4 44 L 34 44 L 34 48 L 4 48 Z M 4 44 "/>
<path style=" stroke:none;fill-rule:nonzero;fill:rgb(100%,100%,100%);fill-opacity:1;" d="M 8 56 L 38 56 L 38 60 L 8 60 Z M 8 56 "/>
<path style=" stroke:none;fill-rule:nonzero;fill:rgb(100%,100%,100%);fill-opacity:1;" d="M 16 68 L 42 68 L 42 72 L 16 72 Z M 16 68 "/>
</g>
</svg>
