<?xml version="1.0"?><svg fill="#000000" xmlns="http://www.w3.org/2000/svg"  viewBox="0 0 24 24" width="24px" height="24px">    <path d="M 6 2 C 4.895 2 4 2.895 4 4 L 4 20 C 4 21.105 4.895 22 6 22 L 12.259766 22 C 11.837766 21.396 11.509922 20.723 11.294922 20 L 6 20 L 6 16 L 11.294922 16 C 11.509922 15.277 11.837766 14.604 12.259766 14 L 6 14 L 6 10 L 18 10 L 18 11 C 18.695 11 19.366 11.105922 20 11.294922 L 20 4 C 20 2.895 19.105 2 18 2 L 6 2 z M 6 4 L 18 4 L 18 8 L 6 8 L 6 4 z M 18 13 C 15.2 13 13 15.2 13 18 C 13 20.8 15.2 23 18 23 C 19 23 20.000781 22.699219 20.800781 22.199219 L 22.599609 24 L 24 22.599609 L 22.199219 20.800781 C 22.699219 20.000781 23 19 23 18 C 23 15.2 20.8 13 18 13 z M 18 15 C 19.7 15 21 16.3 21 18 C 21 19.7 19.7 21 18 21 C 16.3 21 15 19.7 15 18 C 15 16.3 16.3 15 18 15 z"/></svg>