<svg fill="#000000" xmlns="http://www.w3.org/2000/svg"  viewBox="0 0 50 50" width="50px" height="50px"><path d="M 13 0 C 11.355541 0 10 1.3544268 10 3 L 10 22 L 12 22 L 12 3 C 12 2.4355732 12.436459 2 13 2 L 47 2 C 47.563541 2 48 2.4355732 48 3 L 48 47 C 48 47.562937 47.562937 48 47 48 L 13 48 C 12.437063 48 12 47.562937 12 47 L 12 28 L 10 28 L 10 47 C 10 48.645063 11.354937 50 13 50 L 47 50 C 48.645063 50 50 48.645063 50 47 L 50 3 C 50 1.3544268 48.644459 0 47 0 L 13 0 z M 22.042969 13.099609 A 1.0001 1.0001 0 0 0 21.347656 14.816406 L 30.529297 24 L 1 24 A 1.0001 1.0001 0 1 0 1 26 L 30.529297 26 L 21.345703 35.183594 A 1.0001 1.0001 0 1 0 22.759766 36.597656 L 34.357422 25 L 22.761719 13.402344 A 1.0001 1.0001 0 0 0 22.042969 13.099609 z"/></svg>