<?xml version="1.0" encoding="UTF-8"?>
<svg xmlns="http://www.w3.org/2000/svg" xmlns:xlink="http://www.w3.org/1999/xlink" viewBox="0 0 50 50" width="50px" height="50px">
<g id="surface10497048">
<path style=" stroke:none;fill-rule:nonzero;fill:rgb(0%,0%,0%);fill-opacity:1;" d="M 48 25 C 48 37.691406 37.691406 48 25 48 C 12.308594 48 2 37.691406 2 25 C 2 12.308594 12.308594 2 25 2 C 27.875 2 30.625 2.527344 33.164062 3.492188 C 32.945312 4.121094 32.800781 4.78125 32.742188 5.46875 C 30.347656 4.519531 27.734375 4 25 4 C 13.390625 4 4 13.390625 4 25 C 4 36.609375 13.390625 46 25 46 C 36.609375 46 46 36.609375 46 25 C 46 24.695312 45.992188 24.394531 45.980469 24.09375 L 47.808594 24.09375 C 47.867188 24.09375 47.925781 24.089844 47.980469 24.089844 C 47.992188 24.390625 48 24.695312 48 25 Z M 28 14 C 28 15.65625 26.65625 17 25 17 C 23.34375 17 22 15.65625 22 14 C 22 12.34375 23.34375 11 25 11 C 26.65625 11 28 12.34375 28 14 Z M 27 21 L 27 36 L 29 36 L 29 38 L 21 38 L 21 36 L 23 36 L 23 23 L 21 23 L 21 21 Z M 27 21 "/>
<path style=" stroke:none;fill-rule:nonzero;fill:rgb(0%,0%,0%);fill-opacity:1;" d="M 47.808594 8.09375 L 46.710938 8.09375 L 46.710938 6.292969 C 46.710938 2.894531 44.007812 0.09375 40.710938 0.09375 C 37.410156 0.09375 34.710938 2.894531 34.710938 6.292969 L 34.710938 8.09375 L 33.609375 8.09375 C 32.507812 8.09375 31.710938 8.992188 31.710938 9.992188 L 31.710938 20.09375 C 31.710938 21.191406 32.507812 22.09375 33.609375 22.09375 L 47.808594 22.09375 C 48.808594 22.09375 49.710938 21.191406 49.710938 20.191406 L 49.710938 9.992188 C 49.710938 8.992188 48.910156 8.09375 47.808594 8.09375 Z M 36.710938 6.292969 C 36.710938 3.992188 38.507812 2.09375 40.710938 2.09375 C 42.910156 2.09375 44.710938 3.992188 44.710938 6.292969 L 44.710938 8.09375 L 36.710938 8.09375 Z M 47.710938 20.09375 L 33.710938 20.09375 L 33.710938 10.09375 L 47.710938 10.09375 Z M 41.609375 15.492188 L 41.609375 16.792969 C 41.609375 17.292969 41.210938 17.691406 40.710938 17.691406 C 40.210938 17.691406 39.808594 17.292969 39.808594 16.792969 L 39.808594 15.492188 C 39.507812 15.191406 39.308594 14.894531 39.308594 14.492188 C 39.308594 13.691406 39.910156 13.09375 40.710938 13.09375 C 41.507812 13.09375 42.109375 13.691406 42.109375 14.492188 C 42.109375 14.894531 41.910156 15.191406 41.609375 15.492188 Z M 41.609375 15.492188 "/>
</g>
</svg>
