<svg xmlns="http://www.w3.org/2000/svg"  viewBox="0 0 100 100" width="100px" height="100px"><path fill="#c7ede6" d="M87.215,56.71C88.35,54.555,89,52.105,89,49.5c0-6.621-4.159-12.257-10.001-14.478 C78.999,35.015,79,35.008,79,35c0-11.598-9.402-21-21-21c-9.784,0-17.981,6.701-20.313,15.757C36.211,29.272,34.638,29,33,29 c-7.692,0-14.023,5.793-14.89,13.252C12.906,43.353,9,47.969,9,53.5C9,59.851,14.149,65,20.5,65c0.177,0,0.352-0.012,0.526-0.022 C21.022,65.153,21,65.324,21,65.5C21,76.822,30.178,86,41.5,86c6.437,0,12.175-2.972,15.934-7.614C59.612,80.611,62.64,82,66,82 c4.65,0,8.674-2.65,10.666-6.518C77.718,75.817,78.837,76,80,76c6.075,0,11-4.925,11-11C91,61.689,89.53,58.727,87.215,56.71z"/><path fill="#fdfcef" d="M67.5,36.5V37h-3v-0.5c0,0-4.242,0-5.5,0c-2.485,0-4.5-2.015-4.5-4.5 c0-2.333,1.782-4.229,4.055-4.455C58.533,27.364,58.5,27.187,58.5,27c0-2.485,2.015-4.5,4.5-4.5c1.438,0,2.703,0.686,3.527,1.736 C66.667,21.6,68.829,19.5,71.5,19.5c2.761,0,5,2.239,5,5c0,0.446-0.077,0.87-0.187,1.282c0.642-0.777,1.6-1.282,2.687-1.282 c1.781,0,3.234,1.335,3.455,3.055C82.636,27.533,82.813,27.5,83,27.5c2.485,0,4.5,2.015,4.5,4.5s-2.015,4.5-4.5,4.5s-9.5,0-9.5,0 H67.5z"/><path fill="#472b29" d="M71.5,19c3.033,0,5.5,2.467,5.5,5.5c0,0.016,0,0.031,0,0.047C77.602,24.192,78.29,24,79,24 c1.831,0,3.411,1.261,3.858,3.005C82.905,27.002,82.952,27,83,27c2.757,0,5,2.243,5,5s-2.243,5-5,5H67.5 c-0.276,0-0.5-0.224-0.5-0.5s0.224-0.5,0.5-0.5H83c2.206,0,4-1.794,4-4s-1.794-4-4-4c-0.117,0-0.23,0.017-0.343,0.032 l-0.141,0.019c-0.021,0.003-0.041,0.004-0.062,0.004c-0.246,0-0.462-0.185-0.495-0.437C81.768,26.125,80.496,25,79,25 c-0.885,0-1.723,0.401-2.301,1.1c-0.098,0.118-0.241,0.182-0.386,0.182c-0.078,0-0.156-0.018-0.228-0.056 c-0.209-0.107-0.314-0.346-0.254-0.573C75.946,25.218,76,24.852,76,24.5c0-2.481-2.019-4.5-4.5-4.5 c-2.381,0-4.347,1.872-4.474,4.263c-0.011,0.208-0.15,0.387-0.349,0.45c-0.05,0.016-0.101,0.024-0.152,0.024 c-0.15,0-0.296-0.069-0.392-0.192C65.362,23.563,64.221,23,63,23c-2.206,0-4,1.794-4,4c0,0.117,0.017,0.23,0.032,0.343 l0.019,0.141c0.016,0.134-0.022,0.268-0.106,0.373c-0.084,0.105-0.207,0.172-0.34,0.185C56.549,28.247,55,29.949,55,32 c0,2.206,1.794,4,4,4h5.5c0.276,0,0.5,0.224,0.5,0.5S64.776,37,64.5,37H59c-2.757,0-5-2.243-5-5c0-2.397,1.689-4.413,4.003-4.877 C58.001,27.082,58,27.041,58,27c0-2.757,2.243-5,5-5c1.176,0,2.293,0.416,3.183,1.164C66.781,20.76,68.945,19,71.5,19L71.5,19z"/><path fill="#472b29" d="M73,26c1.403,0,2.609,0.999,2.913,2.341C76.28,28.119,76.699,28,77.125,28 c1.202,0,2.198,0.897,2.353,2.068C79.681,30.022,79.874,30,80.063,30c1.529,0,2.811,1.2,2.918,2.732 C82.99,32.87,82.886,32.99,82.749,33c-0.006,0-0.012,0-0.018,0c-0.13,0-0.24-0.101-0.249-0.232 c-0.089-1.271-1.151-2.268-2.419-2.268c-0.229,0-0.47,0.042-0.738,0.127c-0.022,0.007-0.045,0.01-0.067,0.01 c-0.055,0-0.11-0.02-0.156-0.054C79.038,30.537,79,30.455,79,30.375c0-1.034-0.841-1.875-1.875-1.875 c-0.447,0-0.885,0.168-1.231,0.473c-0.047,0.041-0.106,0.063-0.165,0.063c-0.032,0-0.063-0.006-0.093-0.019 c-0.088-0.035-0.148-0.117-0.155-0.212C75.377,27.512,74.288,26.5,73,26.5c-0.208,0-0.425,0.034-0.682,0.107 c-0.023,0.007-0.047,0.01-0.07,0.01c-0.109,0-0.207-0.073-0.239-0.182c-0.038-0.133,0.039-0.271,0.172-0.309 C72.483,26.04,72.744,26,73,26L73,26z"/><path fill="#472b29" d="M59.117,27.5c1.326,0,2.508,0.897,2.874,2.182c0.038,0.133-0.039,0.271-0.172,0.309 C61.795,29.997,61.772,30,61.75,30c-0.109,0-0.209-0.072-0.24-0.182C61.205,28.748,60.221,28,59.117,28 c-0.117,0-0.23,0.014-0.342,0.029c-0.012,0.002-0.023,0.003-0.035,0.003c-0.121,0-0.229-0.092-0.246-0.217 c-0.019-0.137,0.077-0.263,0.214-0.281C58.842,27.516,58.978,27.5,59.117,27.5L59.117,27.5z"/><path fill="#fff" d="M31.5,81h-10c-0.276,0-0.5-0.224-0.5-0.5s0.224-0.5,0.5-0.5h10c0.276,0,0.5,0.224,0.5,0.5 S31.777,81,31.5,81z"/><path fill="#fff" d="M34.5,81h-1c-0.276,0-0.5-0.224-0.5-0.5s0.224-0.5,0.5-0.5h1c0.276,0,0.5,0.224,0.5,0.5 S34.777,81,34.5,81z"/><path fill="#fff" d="M39.491,83H30.5c-0.276,0-0.5-0.224-0.5-0.5s0.224-0.5,0.5-0.5h8.991c0.276,0,0.5,0.224,0.5,0.5 S39.767,83,39.491,83z"/><path fill="#fff" d="M28.5,83h-1c-0.276,0-0.5-0.224-0.5-0.5s0.224-0.5,0.5-0.5h1c0.276,0,0.5,0.224,0.5,0.5 S28.777,83,28.5,83z"/><path fill="#fff" d="M25.5,83h-2c-0.276,0-0.5-0.224-0.5-0.5s0.224-0.5,0.5-0.5h2c0.276,0,0.5,0.224,0.5,0.5 S25.777,83,25.5,83z"/><path fill="#fff" d="M31.5,85h-2c-0.276,0-0.5-0.224-0.5-0.5s0.224-0.5,0.5-0.5h2c0.276,0,0.5,0.224,0.5,0.5 S31.776,85,31.5,85z"/><path fill="#fff" d="M34.5,76c-0.177,0-0.823,0-1,0c-0.276,0-0.5,0.224-0.5,0.5c0,0.276,0.224,0.5,0.5,0.5 c0.177,0,0.823,0,1,0c0.276,0,0.5-0.224,0.5-0.5C35,76.224,34.776,76,34.5,76z"/><path fill="#fff" d="M34.5,78c-0.177,0-4.823,0-5,0c-0.276,0-0.5,0.224-0.5,0.5c0,0.276,0.224,0.5,0.5,0.5 c0.177,0,4.823,0,5,0c0.276,0,0.5-0.224,0.5-0.5C35,78.224,34.776,78,34.5,78z"/><path fill="#fff" d="M39.5,80c-0.177,0-2.823,0-3,0c-0.276,0-0.5,0.224-0.5,0.5c0,0.276,0.224,0.5,0.5,0.5 c0.177,0,2.823,0,3,0c0.276,0,0.5-0.224,0.5-0.5C40,80.224,39.776,80,39.5,80z"/><g><path fill="#fff" d="M86.5,47h-10c-0.276,0-0.5-0.224-0.5-0.5s0.224-0.5,0.5-0.5h10c0.276,0,0.5,0.224,0.5,0.5 S86.776,47,86.5,47z"/><path fill="#fff" d="M90.5,47h-2c-0.276,0-0.5-0.224-0.5-0.5s0.224-0.5,0.5-0.5h2c0.276,0,0.5,0.224,0.5,0.5 S90.776,47,90.5,47z"/><path fill="#fff" d="M95.5,49h-10c-0.276,0-0.5-0.224-0.5-0.5s0.224-0.5,0.5-0.5h10c0.276,0,0.5,0.224,0.5,0.5 S95.777,49,95.5,49z"/><path fill="#fff" d="M83.5,49h-1c-0.276,0-0.5-0.224-0.5-0.5s0.224-0.5,0.5-0.5h1c0.276,0,0.5,0.224,0.5,0.5 S83.776,49,83.5,49z"/><path fill="#fff" d="M80.47,49H78.5c-0.276,0-0.5-0.224-0.5-0.5s0.224-0.5,0.5-0.5h1.97c0.276,0,0.5,0.224,0.5,0.5 S80.746,49,80.47,49z"/><path fill="#fff" d="M89.5,45h-5c-0.276,0-0.5-0.224-0.5-0.5s0.224-0.5,0.5-0.5h5c0.276,0,0.5,0.224,0.5,0.5 S89.777,45,89.5,45z"/><path fill="#fff" d="M86.5,51h-2c-0.276,0-0.5-0.224-0.5-0.5s0.224-0.5,0.5-0.5h2c0.276,0,0.5,0.224,0.5,0.5 S86.776,51,86.5,51z"/></g><g><circle cx="53" cy="51" r="24.25" fill="#ef8f70"/><path fill="#472b29" d="M53,75.95c-13.758,0-24.95-11.192-24.95-24.95S39.242,26.05,53,26.05S77.95,37.242,77.95,51 S66.758,75.95,53,75.95z M53,27.45c-12.985,0-23.55,10.564-23.55,23.55S40.015,74.55,53,74.55S76.55,63.986,76.55,51 S65.985,27.45,53,27.45z"/></g><g><path fill="#472b29" d="M73.135,47.635c-0.235,0-0.444-0.167-0.49-0.406c-0.49-2.575-1.472-4.996-2.917-7.196 c-0.151-0.231-0.087-0.541,0.144-0.692c0.23-0.15,0.541-0.088,0.692,0.144c1.518,2.31,2.548,4.853,3.063,7.558 c0.052,0.271-0.126,0.533-0.397,0.585C73.197,47.632,73.166,47.635,73.135,47.635z"/></g><g><path fill="#472b29" d="M53,72c-11.579,0-21-9.421-21-21s9.421-21,21-21c5.525,0,10.742,2.128,14.688,5.992 c0.197,0.193,0.201,0.51,0.008,0.707c-0.191,0.197-0.51,0.201-0.707,0.007C63.23,33.027,58.262,31,53,31c-11.028,0-20,8.972-20,20 s8.972,20,20,20s20-8.972,20-20c0-0.276,0.224-0.5,0.5-0.5S74,50.724,74,51C74,62.579,64.579,72,53,72z"/></g><g><path fill="#fdfcef" d="M17.5,66.5c0,0-1.567,0-3.5,0s-3.5-1.567-3.5-3.5c0-1.781,1.335-3.234,3.055-3.455 C13.527,59.366,13.5,59.187,13.5,59c0-1.933,1.567-3.5,3.5-3.5c1.032,0,1.95,0.455,2.59,1.165c0.384-1.808,1.987-3.165,3.91-3.165 c2.209,0,4,1.791,4,4c0,0.191-0.03,0.374-0.056,0.558C27.872,57.714,28.408,57.5,29,57.5c1.228,0,2.245,0.887,2.455,2.055 C31.634,59.527,31.813,59.5,32,59.5c1.933,0,3.5,1.567,3.5,3.5s-1.567,3.5-3.5,3.5s-7.5,0-7.5,0V67h-7V66.5z"/><path fill="#472b29" d="M15.75,62c0.138,0,0.25-0.112,0.25-0.25c0-1.223-0.995-2.218-2.218-2.218 c-0.034,0.009-0.737-0.001-1.244,0.136c-0.133,0.036-0.212,0.173-0.176,0.306c0.036,0.134,0.173,0.213,0.306,0.176 c0.444-0.12,1.1-0.12,1.113-0.118c0.948,0,1.719,0.771,1.719,1.718C15.5,61.888,15.612,62,15.75,62z"/><circle cx="22.5" cy="66.5" r=".5" fill="#472b29"/><path fill="#472b29" d="M14,67h3.5c0.276,0,0.5-0.224,0.5-0.5S17.776,66,17.5,66H14c-1.654,0-3-1.346-3-3 c0-1.496,1.125-2.768,2.618-2.959c0.134-0.018,0.255-0.088,0.336-0.196s0.115-0.244,0.094-0.377C14.025,59.314,14,59.16,14,59 c0-1.654,1.346-3,3-3c0.85,0,1.638,0.355,2.219,1c0.125,0.139,0.321,0.198,0.5,0.148c0.182-0.049,0.321-0.195,0.36-0.379 C20.42,55.165,21.859,54,23.5,54c1.93,0,3.5,1.57,3.5,3.5c0,0.143-0.021,0.28-0.041,0.418c-0.029,0.203,0.063,0.438,0.242,0.54 c0.179,0.102,0.396,0.118,0.556-0.01C28.122,58.155,28.551,58,29,58c0.966,0,1.792,0.691,1.963,1.644 c0.048,0.267,0.296,0.446,0.569,0.405C31.686,60.025,31.84,60,32,60c1.654,0,3,1.346,3,3s-1.346,3-3,3h-7.5 c-0.276,0-0.5,0.224-0.5,0.5s0.224,0.5,0.5,0.5H32c2.206,0,4-1.794,4-4s-1.794-4-4-4c-0.059,0-0.116,0.002-0.174,0.006 C31.412,57.82,30.289,57,29,57c-0.349,0-0.689,0.061-1.011,0.18C27.824,54.847,25.874,53,23.5,53 c-1.831,0-3.466,1.127-4.153,2.774C18.667,55.276,17.845,55,17,55c-2.206,0-4,1.794-4,4c0,0.048,0.001,0.095,0.004,0.142 C11.261,59.59,10,61.169,10,63C10,65.206,11.794,67,14,67z"/><path fill="#472b29" d="M19.5,66c0.159,0,0.841,0,1,0c0.276,0,0.5,0.224,0.5,0.5c0,0.276-0.224,0.5-0.5,0.5 c-0.159,0-0.841,0-1,0c-0.276,0-0.5-0.224-0.5-0.5C19,66.224,19.224,66,19.5,66z"/></g><g><rect width="4" height="19" x="44" y="42" fill="#472b29"/><circle cx="57.5" cy="49.5" r="7.5" fill="#fff"/><path fill="#472b29" d="M64.592,47.304c-0.104,0-0.201-0.065-0.236-0.168c-0.48-1.394-1.364-2.595-2.558-3.475 c-0.111-0.082-0.135-0.239-0.053-0.35c0.083-0.111,0.239-0.134,0.35-0.053c1.275,0.94,2.22,2.225,2.733,3.715 c0.045,0.131-0.024,0.273-0.155,0.318C64.646,47.3,64.619,47.304,64.592,47.304z"/><path fill="#472b29" d="M57.5,57.25c-4.273,0-7.75-3.477-7.75-7.75s3.477-7.75,7.75-7.75c0.866,0,1.718,0.142,2.53,0.422 c0.13,0.045,0.199,0.187,0.154,0.318c-0.046,0.131-0.187,0.199-0.318,0.155c-0.759-0.262-1.556-0.395-2.366-0.395 c-3.998,0-7.25,3.252-7.25,7.25s3.252,7.25,7.25,7.25s7.25-3.252,7.25-7.25c0-0.138,0.112-0.25,0.25-0.25s0.25,0.112,0.25,0.25 C65.25,53.773,61.773,57.25,57.5,57.25z"/></g></svg>