<svg fill="#000000" xmlns="http://www.w3.org/2000/svg"  viewBox="0 0 50 50" width="50px" height="50px"><path d="M43 46H29c-1.654 0-3-1.346-3-3V29c0-1.654 1.346-3 3-3h14c1.654 0 3 1.346 3 3v14C46 44.654 44.654 46 43 46zM43 24H29c-1.654 0-3-1.346-3-3V7c0-1.654 1.346-3 3-3h14c1.654 0 3 1.346 3 3v14C46 22.654 44.654 24 43 24zM21 46H7c-1.654 0-3-1.346-3-3V29c0-1.654 1.346-3 3-3h14c1.654 0 3 1.346 3 3v14C24 44.654 22.654 46 21 46zM21 24H7c-1.654 0-3-1.346-3-3V7c0-1.654 1.346-3 3-3h14c1.654 0 3 1.346 3 3v14C24 22.654 22.654 24 21 24z"/></svg>